<mxfile host="app.diagrams.net" modified="2024-03-07T09:20:27.481Z" agent="Mozilla/5.0 (Windows NT 10.0; Win64; x64) AppleWebKit/537.36 (KHTML, like Gecko) Chrome/122.0.0.0 Safari/537.36" version="24.0.2" etag="ttUdednZGnl8AJk230I0" type="github">
  <diagram name="Pagina-1" id="i48ExeRKadWt6t5a4j2Q">
    <mxGraphModel>
      <root>
        <mxCell id="0" />
        <mxCell id="1" parent="0" />
      </root>
    </mxGraphModel>
  </diagram>
</mxfile>
